<svg width="45" height="32" viewBox="0 0 45 32" fill="none" xmlns="http://www.w3.org/2000/svg">
<rect x="0.5" y="0.5" width="44" height="30.7647" rx="4.79412" fill="#1A1A1A" stroke="#333333"/>
<path fill-rule="evenodd" clip-rule="evenodd" d="M14.2279 20.9888H11.5017L9.45748 12.9604C9.36045 12.5911 9.15443 12.2647 8.85138 12.1108C8.09508 11.7241 7.26169 11.4163 6.35254 11.2611V10.952H10.7441C11.3502 10.952 11.8048 11.4163 11.8806 11.9556L12.9412 17.7467L15.666 10.952H18.3164L14.2279 20.9888ZM19.8317 20.9888H17.2571L19.3771 10.952H21.9517L19.8317 20.9888ZM25.2825 13.7326C25.3583 13.192 25.8128 12.8829 26.3432 12.8829C27.1766 12.8053 28.0844 12.9605 28.842 13.3459L29.2966 11.1849C28.539 10.8758 27.7056 10.7206 26.9493 10.7206C24.4504 10.7206 22.6321 12.1108 22.6321 14.0403C22.6321 15.5082 23.9201 16.2789 24.8293 16.7432C25.8128 17.2062 26.1917 17.5153 26.1159 17.9782C26.1159 18.6727 25.3583 18.9818 24.602 18.9818C23.6928 18.9818 22.7837 18.7503 21.9516 18.3636L21.497 20.5259C22.4062 20.9112 23.3898 21.0665 24.2989 21.0665C27.1008 21.1427 28.842 19.7538 28.842 17.6691C28.842 15.0439 25.2825 14.89 25.2825 13.7326ZM37.8525 20.9888L35.8082 10.952H33.6124C33.1578 10.952 32.7033 11.2611 32.5517 11.7241L28.7663 20.9888H31.4166L31.9456 19.5223H35.2021L35.5052 20.9888H37.8525ZM33.9914 13.655L34.7477 17.4377H32.6276L33.9914 13.655Z" fill="white"/>
</svg>
