<svg width="45" height="32" viewBox="0 0 45 32" fill="none" xmlns="http://www.w3.org/2000/svg">
<rect x="0.5" y="0.5" width="44" height="30.7647" rx="4.79412" fill="#1A1A1A" stroke="#333333"/>
<path fill-rule="evenodd" clip-rule="evenodd" d="M22.7369 22.2742C21.1698 23.5952 19.1369 24.3926 16.9156 24.3926C11.9592 24.3926 7.94116 20.4224 7.94116 15.525C7.94116 10.6275 11.9592 6.65731 16.9156 6.65731C19.1369 6.65731 21.1698 7.45475 22.7369 8.77572C24.3041 7.45477 26.3369 6.65733 28.5582 6.65733C33.5147 6.65733 37.5327 10.6275 37.5327 15.525C37.5327 20.4224 33.5147 24.3926 28.5582 24.3926C26.3369 24.3926 24.304 23.5952 22.7369 22.2742Z" fill="#ED0006"/>
<path fill-rule="evenodd" clip-rule="evenodd" d="M22.7368 22.2743C24.6665 20.6478 25.89 18.2276 25.89 15.525C25.89 12.8224 24.6665 10.4022 22.7368 8.77566C24.3039 7.45474 26.3367 6.65733 28.558 6.65733C33.5145 6.65733 37.5325 10.6275 37.5325 15.525C37.5325 20.4224 33.5145 24.3926 28.558 24.3926C26.3367 24.3926 24.3039 23.5952 22.7368 22.2743Z" fill="#F9A000"/>
<path fill-rule="evenodd" clip-rule="evenodd" d="M22.7369 22.2743C24.6665 20.6478 25.89 18.2276 25.89 15.525C25.89 12.8224 24.6665 10.4022 22.7369 8.77576C20.8073 10.4022 19.5837 12.8224 19.5837 15.525C19.5837 18.2276 20.8073 20.6478 22.7369 22.2743Z" fill="#FF5E00"/>
</svg>
