<svg width="45" height="32" viewBox="0 0 45 32" fill="none" xmlns="http://www.w3.org/2000/svg">
<rect x="0.5" y="0.5" width="44" height="30.7647" rx="4.79412" fill="#1A1A1A" stroke="#333333"/>
<path d="M18.5294 30.6762L43.6765 23.0659V26.7056C43.6765 28.8985 41.8988 30.6762 39.7059 30.6762H18.5294Z" fill="#FD6020"/>
<path fill-rule="evenodd" clip-rule="evenodd" d="M38.9034 12.0583C40.2868 12.0583 41.0477 12.6983 41.0477 13.9072C41.1169 14.8316 40.4944 15.6138 39.6643 15.756L41.532 18.387H40.0793L38.4883 15.8271H38.35V18.387H37.174V12.0583H38.9034ZM38.35 14.9738H38.6958C39.4568 14.9738 39.8026 14.6183 39.8026 13.9783C39.8026 13.4094 39.4568 13.0539 38.6958 13.0539H38.35V14.9738ZM33.0928 18.387H36.4131V17.3204H34.2687V15.6138H36.3439V14.5471H34.2687V13.125H36.4131V12.0583H33.0928V18.387ZM29.634 16.3249L28.043 12.0583H26.7979L29.3573 18.5293H29.9799L32.5393 12.0583H31.2942L29.634 16.3249ZM15.5919 15.2582C15.5919 17.036 16.9753 18.5293 18.7047 18.5293C19.2581 18.5293 19.7423 18.3871 20.2265 18.1737V16.7515C19.8806 17.1782 19.3964 17.4626 18.843 17.4626C17.7362 17.4626 16.837 16.6093 16.837 15.4716V15.3294C16.7678 14.1916 17.6671 13.1961 18.7739 13.125C19.3272 13.125 19.8806 13.4094 20.2265 13.8361V12.4139C19.8115 12.1294 19.2581 12.0583 18.7739 12.0583C16.9753 11.9161 15.5919 13.4094 15.5919 15.2582ZM13.4475 14.476C12.7557 14.1916 12.5482 14.0494 12.5482 13.6938C12.6174 13.2672 12.9632 12.9116 13.3783 12.9828C13.7241 12.9828 14.07 13.1961 14.3467 13.4805L14.9693 12.6272C14.4851 12.2005 13.8625 11.9161 13.2399 11.9161C12.2715 11.845 11.4414 12.6272 11.3722 13.6227V13.6938C11.3722 14.5472 11.7181 15.0449 12.8249 15.4005C13.1016 15.4716 13.3783 15.6138 13.655 15.756C13.8625 15.8982 14.0008 16.1116 14.0008 16.396C14.0008 16.8938 13.5858 17.3204 13.1708 17.3204H13.1016C12.5482 17.3204 12.064 16.9649 11.8565 16.4671L11.0955 17.2493C11.5106 18.0315 12.3407 18.4582 13.1708 18.4582C14.2775 18.5293 15.1768 17.676 15.246 16.5382V16.3249C15.1768 15.4716 14.8309 15.0449 13.4475 14.476ZM9.43531 18.387H10.6113V12.0583H9.43531V18.387ZM3.97058 12.0583H5.69993H6.0458C7.70597 12.1294 9.02028 13.5516 8.9511 15.2582C8.9511 16.1827 8.53606 17.036 7.84432 17.6759C7.22175 18.1737 6.46084 18.4581 5.69993 18.387H3.97058V12.0583ZM5.49248 17.3204C6.04587 17.3915 6.66844 17.1782 7.08348 16.8226C7.49852 16.396 7.70604 15.8271 7.70604 15.1871C7.70604 14.6182 7.49852 14.0493 7.08348 13.6227C6.66844 13.2671 6.04587 13.0538 5.49248 13.1249H5.14661V17.3204H5.49248Z" fill="white"/>
<path fill-rule="evenodd" clip-rule="evenodd" d="M23.7544 11.9116C22.025 11.9116 20.5724 13.3338 20.5724 15.1826C20.5724 16.9604 21.9559 18.4537 23.7544 18.5248C25.5529 18.5959 26.9364 17.1026 27.0056 15.2538C26.9364 13.4049 25.5529 11.9116 23.7544 11.9116V11.9116Z" fill="#FD6020"/>
</svg>
